<svg width="23" height="24" viewBox="0 0 23 24" fill="none" xmlns="http://www.w3.org/2000/svg">
<path d="M3.4502 10.275C3.4502 9.95741 3.70762 9.69998 4.02519 9.69998H5.17519C5.49276 9.69998 5.75019 9.95741 5.75019 10.275V11.425C5.75019 11.7425 5.49276 12 5.17519 12H4.02519C3.70762 12 3.4502 11.7425 3.4502 11.425V10.275Z" fill="#333333"/>
<path d="M6.8999 10.275C6.8999 9.95741 7.15733 9.69998 7.4749 9.69998H8.6249C8.94247 9.69998 9.1999 9.95741 9.1999 10.275V11.425C9.1999 11.7425 8.94247 12 8.6249 12H7.4749C7.15733 12 6.8999 11.7425 6.8999 11.425V10.275Z" fill="#333333"/>
<path d="M4.02519 13.15C3.70762 13.15 3.4502 13.4074 3.4502 13.725V14.875C3.4502 15.1926 3.70762 15.45 4.02519 15.45H5.17519C5.49276 15.45 5.75019 15.1926 5.75019 14.875V13.725C5.75019 13.4074 5.49276 13.15 5.17519 13.15H4.02519Z" fill="#333333"/>
<path d="M3.4502 17.1749C3.4502 16.8574 3.70762 16.5999 4.02519 16.5999H5.17519C5.49276 16.5999 5.75019 16.8574 5.75019 17.1749V18.3249C5.75019 18.6425 5.49276 18.8999 5.17519 18.8999H4.02519C3.70762 18.8999 3.4502 18.6425 3.4502 18.3249V17.1749Z" fill="#333333"/>
<path d="M7.4749 13.15C7.15733 13.15 6.8999 13.4074 6.8999 13.725V14.875C6.8999 15.1926 7.15733 15.45 7.4749 15.45H8.6249C8.94247 15.45 9.1999 15.1926 9.1999 14.875V13.725C9.1999 13.4074 8.94247 13.15 8.6249 13.15H7.4749Z" fill="#333333"/>
<path d="M6.8999 17.1749C6.8999 16.8574 7.15733 16.5999 7.4749 16.5999H8.6249C8.94247 16.5999 9.1999 16.8574 9.1999 17.1749V18.3249C9.1999 18.6425 8.94247 18.8999 8.6249 18.8999H7.4749C7.15733 18.8999 6.8999 18.6425 6.8999 18.3249V17.1749Z" fill="#333333"/>
<path d="M17.825 10.85C17.5074 10.85 17.25 11.1074 17.25 11.425V12.575C17.25 12.8925 17.5074 13.15 17.825 13.15H18.975C19.2926 13.15 19.55 12.8925 19.55 12.575V11.425C19.55 11.1074 19.2926 10.85 18.975 10.85H17.825Z" fill="#333333"/>
<path d="M17.25 14.875C17.25 14.5574 17.5074 14.3 17.825 14.3H18.975C19.2926 14.3 19.55 14.5574 19.55 14.875V16.025C19.55 16.3425 19.2926 16.6 18.975 16.6H17.825C17.5074 16.6 17.25 16.3425 17.25 16.025V14.875Z" fill="#333333"/>
<path d="M17.825 17.75C17.5074 17.75 17.25 18.0074 17.25 18.325V19.475C17.25 19.7925 17.5074 20.05 17.825 20.05H18.975C19.2926 20.05 19.55 19.7925 19.55 19.475V18.325C19.55 18.0074 19.2926 17.75 18.975 17.75H17.825Z" fill="#333333"/>
<path fill-rule="evenodd" clip-rule="evenodd" d="M1.15 22.3499H0V23.4999H22.9999V22.3499H21.8499V10.275C21.8499 9.32226 21.0777 8.54998 20.125 8.54998H16.675V2.225C16.675 1.27231 15.9027 0.5 14.95 0.5H8.04998C7.09727 0.5 6.32499 1.27231 6.32499 2.225V7.39998H2.87499C1.92231 7.39998 1.15 8.17227 1.15 9.12498V22.3499ZM10.35 22.3499V9.12498C10.35 8.80741 10.0925 8.54998 9.77498 8.54998H2.87499C2.55743 8.54998 2.29999 8.80741 2.29999 9.12498V22.3499H10.35ZM20.7 22.3499V10.275C20.7 9.95741 20.4425 9.69998 20.125 9.69998H16.675V22.3499H20.7ZM9.19998 2.79999C8.88241 2.79999 8.62498 3.05743 8.62498 3.37499V4.52499C8.62498 4.84256 8.88241 5.09999 9.19998 5.09999H10.35C10.6675 5.09999 10.925 4.84256 10.925 4.52499V3.37499C10.925 3.05743 10.6675 2.79999 10.35 2.79999H9.19998ZM9.19998 6.24999C8.88241 6.24999 8.62498 6.50741 8.62498 6.82499V7.39998H9.77498C10.2168 7.39998 10.6198 7.5661 10.925 7.83923V6.82499C10.925 6.50741 10.6675 6.24999 10.35 6.24999H9.19998ZM12.65 2.79999C12.3324 2.79999 12.075 3.05743 12.075 3.37499V4.52499C12.075 4.84256 12.3324 5.09999 12.65 5.09999H13.8C14.1175 5.09999 14.375 4.84256 14.375 4.52499V3.37499C14.375 3.05743 14.1175 2.79999 13.8 2.79999H12.65ZM12.075 6.82499C12.075 6.50741 12.3324 6.24999 12.65 6.24999H13.8C14.1175 6.24999 14.375 6.50741 14.375 6.82499V7.97498C14.375 8.29255 14.1175 8.54998 13.8 8.54998H12.65C12.3324 8.54998 12.075 8.29255 12.075 7.97498V6.82499ZM12.65 9.69998C12.3324 9.69998 12.075 9.95741 12.075 10.275V11.425C12.075 11.7425 12.3324 12 12.65 12H13.8C14.1175 12 14.375 11.7425 14.375 11.425V10.275C14.375 9.95741 14.1175 9.69998 13.8 9.69998H12.65ZM12.075 13.725C12.075 13.4074 12.3324 13.15 12.65 13.15H13.8C14.1175 13.15 14.375 13.4074 14.375 13.725V14.875C14.375 15.1925 14.1175 15.45 13.8 15.45H12.65C12.3324 15.45 12.075 15.1925 12.075 14.875V13.725ZM12.65 16.6C12.3324 16.6 12.075 16.8574 12.075 17.175V18.325C12.075 18.6425 12.3324 18.9 12.65 18.9H13.8C14.1175 18.9 14.375 18.6425 14.375 18.325V17.175C14.375 16.8574 14.1175 16.6 13.8 16.6H12.65Z" fill="#333333"/>
</svg>
