<svg width="18" height="18" viewBox="0 0 18 18" fill="none" xmlns="http://www.w3.org/2000/svg">
<g clip-path="url(#clip0_3789_10324)">
<path d="M11.4705 3.024L13.4979 3.56203C13.5507 3.57282 13.5937 3.61603 13.6059 3.66922L14.1403 5.69658C14.1547 5.7561 14.2071 5.79793 14.268 5.79793C14.3295 5.79793 14.3813 5.7561 14.3951 5.69658L14.9304 3.66922C14.9417 3.61607 14.9849 3.57282 15.0378 3.56203L17.0654 3.024C17.1247 3.01289 17.1668 2.96002 17.1668 2.89909C17.1668 2.8376 17.1247 2.78582 17.0654 2.77393L15.0378 2.23615C14.9849 2.22483 14.9417 2.18215 14.9304 2.12899L14.3951 0.101637C14.3812 0.0426445 14.3294 0 14.268 0C14.2071 0 14.1547 0.0426445 14.1403 0.101637L13.6059 2.12899C13.5937 2.18215 13.5508 2.22483 13.4979 2.23615L11.4705 2.77393C11.4107 2.78585 11.3691 2.83764 11.3691 2.89909C11.3691 2.96002 11.4107 3.01293 11.4705 3.024Z" fill="#F79009"/>
<path d="M13.5443 11.4796L12.6241 11.2356C12.6 11.2301 12.5804 11.2112 12.5751 11.1869L12.3325 10.2667C12.3261 10.2398 12.3026 10.2207 12.2746 10.2207C12.2472 10.2207 12.2234 10.2398 12.2168 10.2667L11.9742 11.1869C11.9686 11.2113 11.9493 11.2301 11.9252 11.2356L11.0053 11.4796C10.9781 11.4849 10.959 11.5087 10.959 11.5364C10.959 11.5641 10.9781 11.5879 11.0053 11.5934L11.9252 11.8371C11.9493 11.8421 11.9686 11.862 11.9742 11.8864L12.2168 12.8061C12.2234 12.8329 12.2472 12.852 12.2746 12.852C12.3026 12.852 12.3261 12.8329 12.3325 12.8061L12.5751 11.8864C12.5804 11.862 12.6 11.8421 12.6241 11.8371L13.5443 11.5934C13.5709 11.5879 13.5903 11.5641 13.5903 11.5364C13.5903 11.5087 13.5709 11.4849 13.5443 11.4796Z" fill="#F79009"/>
<path d="M1.33066 4.92435L2.77923 5.30815C2.81741 5.3162 2.84765 5.34696 2.85675 5.38514L3.23834 6.83372C3.24885 6.87665 3.28626 6.90628 3.32975 6.90628C3.37348 6.90628 3.41061 6.87665 3.42087 6.83372L3.80274 5.38514C3.81079 5.34696 3.84208 5.3162 3.88001 5.30815L5.32887 4.92435C5.37123 4.91549 5.4014 4.87727 5.4014 4.83407C5.4014 4.79086 5.37123 4.75377 5.32887 4.74491L3.88001 4.36051C3.84208 4.35222 3.81079 4.32233 3.80274 4.28408L3.42087 2.8347C3.41061 2.79258 3.37352 2.7627 3.32975 2.7627C3.28629 2.7627 3.24889 2.79258 3.23834 2.8347L2.85675 4.28412C2.84761 4.32233 2.81741 4.35222 2.77923 4.36055L1.33066 4.74495C1.28745 4.75381 1.25781 4.79089 1.25781 4.8341C1.25781 4.87727 1.28745 4.91552 1.33066 4.92435Z" fill="#F79009"/>
<path d="M13.9429 9.73444C13.666 9.41044 13.2703 9.123 12.7824 8.88208H12.7829C11.8098 8.40023 10.4753 8.10534 9.00071 8.10449L8.99656 8.10474V8.10449C8.02815 8.10474 7.11929 8.23186 6.33365 8.45563C5.54801 8.6794 4.88676 8.99841 4.41043 9.38611L4.41124 9.38555C4.09307 9.6442 3.85907 9.93276 3.7292 10.2465C3.65495 10.4246 3.61593 10.6123 3.61621 10.8026C3.61621 10.959 3.74306 11.0861 3.89978 11.0861C4.05654 11.0861 4.18335 10.959 4.18335 10.8026C4.18363 10.6882 4.20526 10.5794 4.25314 10.4631C4.33593 10.2615 4.50514 10.0394 4.76849 9.82613L4.7693 9.82557C5.16144 9.50434 5.76015 9.20748 6.48901 9.00119C7.21786 8.7932 8.078 8.67163 8.99656 8.67191H9.0115C10.4047 8.6722 11.6633 8.95826 12.5306 9.39026L12.5315 9.39054C12.9668 9.60489 13.3027 9.85686 13.5118 10.1028C13.617 10.226 13.6918 10.347 13.7397 10.4631C13.7995 10.6079 13.9651 10.6766 14.11 10.6168C14.2548 10.557 14.3235 10.3913 14.2637 10.2465C14.1897 10.0676 14.0817 9.89616 13.9429 9.73444Z" fill="#F79009"/>
<path d="M17.083 9.56132C16.9633 9.27276 16.7997 9.00445 16.6022 8.75659C16.4048 8.50902 16.1738 8.28139 15.9168 8.07203L15.9011 8.0593L15.9163 8.07203C15.1442 7.44453 14.1282 6.96489 12.9513 6.62816H12.951C11.773 6.29337 10.4291 6.10645 9.00013 6.10645C7.91127 6.10645 6.87223 6.21501 5.91798 6.41466C4.9637 6.61435 4.09418 6.90509 3.34426 7.2756L3.3437 7.27588C2.59463 7.64752 1.9577 8.10002 1.48499 8.6519L1.49357 8.64135L1.48471 8.6519C1.24877 8.9283 1.05383 9.23152 0.917286 9.56132C0.780493 9.8914 0.704344 10.2473 0.70459 10.6136V13.492C0.704344 13.8586 0.780493 14.2147 0.917286 14.5448C1.03692 14.8334 1.20061 15.1014 1.39805 15.3493C1.59577 15.5971 1.82643 15.8245 2.08338 16.0338L2.08395 16.0341C2.85601 16.6611 3.87175 17.1418 5.04867 17.4779L5.055 17.4794C6.23175 17.8131 7.57342 17.9997 9.00013 18H9.00041C10.089 17.9997 11.128 17.8912 12.0823 17.6915C13.0366 17.4918 13.9061 17.2008 14.656 16.8305L14.6565 16.83C15.4056 16.4583 16.0422 16.0056 16.5152 15.4542L16.5155 15.4537C16.7514 15.1779 16.9461 14.875 17.0827 14.5449L17.0741 14.5651L17.0829 14.5449C17.2194 14.2147 17.2956 13.8586 17.2956 13.492V10.6137C17.2956 10.2473 17.2195 9.8914 17.083 9.56132ZM2.56084 14.991C2.47362 14.9087 2.3922 14.8251 2.31967 14.7406C2.14768 14.539 2.01863 14.3327 1.93249 14.125C1.84636 13.9168 1.80319 13.7072 1.80319 13.492V12.1871C1.97127 12.3946 2.16983 12.5903 2.39441 12.7737C2.44845 12.8171 2.50382 12.8601 2.56084 12.9027V14.991ZM4.15148 15.9937C4.04211 15.9461 3.9344 15.8973 3.83107 15.8459C3.59043 15.7268 3.36887 15.5997 3.16676 15.467V13.2987C3.46833 13.4718 3.79785 13.6305 4.15148 13.7734V15.9937ZM6.12122 16.6115C5.62221 16.506 5.15393 16.3739 4.72221 16.2197H4.75793V13.9946C4.89666 14.0406 5.039 14.0841 5.18409 14.1256C5.48429 14.2109 5.79778 14.2857 6.12122 14.3508V16.6115ZM8.69691 16.8981C8.01069 16.8843 7.35106 16.8217 6.72742 16.7209V14.4568C7.35464 14.5537 8.01428 14.6105 8.69691 14.6238V16.8981ZM11.3487 16.7073C10.7029 16.815 10.0178 16.8826 9.30335 16.8965V14.6251C10.0134 14.6113 10.6993 14.5495 11.3487 14.4465V16.7073ZM13.3185 16.2058C13.1047 16.2834 12.882 16.3554 12.6502 16.4213C12.4265 16.485 12.1933 16.5417 11.9546 16.5938V14.3358C12.4345 14.2366 12.8909 14.1131 13.3185 13.9688V16.2058ZM14.9094 15.4155C14.6225 15.6121 14.2924 15.7949 13.9244 15.961V13.7418C14.1016 13.6683 14.2736 13.5914 14.4378 13.5102C14.602 13.4285 14.759 13.343 14.9094 13.2543V15.4155ZM16.1971 13.492C16.1971 13.7071 16.1539 13.9168 16.0675 14.125C15.9567 14.3941 15.7709 14.662 15.5153 14.9187V12.8711H15.4793C15.7307 12.6792 15.9536 12.4745 16.1411 12.2555C16.1602 12.2331 16.1785 12.2104 16.197 12.1877V13.492H16.1971ZM16.0675 11.2461C15.918 11.6095 15.6327 11.97 15.2229 12.3037C14.6095 12.8044 13.7197 13.2386 12.6503 13.5424C11.5811 13.847 10.3327 14.0229 9.00016 14.0229C6.97003 14.0237 5.13375 13.613 3.83111 12.9669C3.1798 12.6449 2.6636 12.265 2.31967 11.8615C2.14768 11.6601 2.01863 11.4539 1.93249 11.2462C1.84636 11.0379 1.80319 10.8286 1.80319 10.6137C1.80319 10.3988 1.84636 10.1895 1.93249 9.98119C2.08261 9.61761 2.36727 9.25704 2.7774 8.9239C3.39109 8.42293 4.28054 7.98846 5.35003 7.68468C6.41924 7.38037 7.66788 7.20476 9.00016 7.20476C11.0303 7.20364 12.8663 7.61461 14.1689 8.2604C14.8205 8.58218 15.337 8.96268 15.6804 9.36557C15.8526 9.56691 15.9817 9.77321 16.0675 9.98116C16.1539 10.1894 16.1971 10.3987 16.1971 10.6137C16.1971 10.8286 16.1539 11.0379 16.0675 11.2461Z" fill="#F79009"/>
</g>
<defs>
<clipPath id="clip0_3789_10324">
<rect width="18" height="18" fill="white"/>
</clipPath>
</defs>
</svg>
