<svg width="180" height="205" fill="none" xmlns="http://www.w3.org/2000/svg"><path d="M27.468 62.99c-.557 1.267-1.17 2.634-1.708 3.97-.538 1.337-1.095 2.71-1.582 4.079-1 2.666-1.8 5.403-2.398 8.187l-.183 1.014-.063.38c0 .107 0 .246-.038.373-.024.617-.012 1.234.038 1.85.12 1.335.335 2.766.632 4.197.532 2.87 1.209 5.826 1.898 8.74l-3.245 1.266a58.7 58.7 0 01-3.853-8.606 36.11 36.11 0 01-1.341-4.73 16.99 16.99 0 01-.355-2.698v-.766c0-.272 0-.576.045-.754l.126-1.266c.19-1.631.479-3.25.867-4.844.354-1.584.81-3.122 1.265-4.642.456-1.52 1.025-3.014 1.626-4.483.297-.735.633-1.463.924-2.192.29-.728.632-1.424 1.037-2.203l6.308 3.128z" fill="#E4897B"/><path d="M23.893 94.924l2.468 2.413-5.384 2.533s-1.303-2.286-.399-4.35l3.315-.596z" fill="#E4897B"/><path d="M28.354 100.927l-4.55 1.862-2.82-2.945 5.377-2.507 1.992 3.59z" fill="#E4897B"/><path d="M74.302 35.596l-.6-.203a55.55 55.55 0 013.91-8.897l.55.304a55.076 55.076 0 00-3.86 8.796zm7.68-14.78l-.512-.374a54.864 54.864 0 0119.846-16.597l.285.57a54.255 54.255 0 00-19.618 16.42v-.019zm69.332-15.533a52.847 52.847 0 00-6.402-2.907l.228-.595a54.186 54.186 0 016.465 2.963l-.291.539z" fill="#005E9A"/><path opacity=".3" d="M74.302 35.596l-.6-.203a55.55 55.55 0 013.91-8.897l.55.304a55.076 55.076 0 00-3.86 8.796zm7.68-14.78l-.512-.374a54.864 54.864 0 0119.846-16.597l.285.57a54.255 54.255 0 00-19.618 16.42v-.019zm69.332-15.533a52.847 52.847 0 00-6.402-2.907l.228-.595a54.186 54.186 0 016.465 2.963l-.291.539z" fill="#000"/><path d="M172.666 29.732a52.528 52.528 0 00-28.789-26.358 52.465 52.465 0 00-39.009.797 52.534 52.534 0 00-27.69 27.512 52.605 52.605 0 00-1.085 39.039c-4.226 1.482-8.402 3.07-12.552 4.711a523.265 523.265 0 00-17.79 7.447c-5.87 2.603-11.716 5.256-17.505 8.03-2.904 1.36-5.77 2.798-8.661 4.191a12.52 12.52 0 00-4.01 2.755 12.128 12.128 0 00-1.627 2.134c-.563.91-.99 1.898-1.265 2.932a8.057 8.057 0 004.637 9.404c.982.412 2.017.68 3.075.797.893.102 1.795.102 2.689 0a12.488 12.488 0 004.618-1.513c2.866-1.45 5.75-2.85 8.598-4.338a669.542 669.542 0 0017.011-9.017 471.069 471.069 0 0016.746-9.606c3.796-2.299 7.63-4.648 11.388-7.105a52.51 52.51 0 0031.621 22.863 52.462 52.462 0 0038.65-5.275 52.554 52.554 0 0024.35-30.503 52.603 52.603 0 00-3.387-38.897h-.013zm-28.76 60.493a41.423 41.423 0 01-45.671-6 41.502 41.502 0 01-12.718-20.451 41.533 41.533 0 01.776-24.078 41.495 41.495 0 0114.009-19.589 41.425 41.425 0 0145.962-3.04 41.482 41.482 0 0116.463 17.573 41.529 41.529 0 01-5.99 45.722 41.453 41.453 0 01-12.831 9.864z" fill="#005E9A"/><path d="M44.954 40.377c0 .374.196.678.443.678s.443-.304.443-.678c0-.374-.196-.678-.443-.678s-.443.33-.443.678z" fill="#263238"/><path d="M45.131 41.054a13.51 13.51 0 001.79 3.21 2.154 2.154 0 01-1.79.336v-3.546z" fill="#DE5753"/><path d="M43.645 38.293a.234.234 0 01-.184-.088.228.228 0 01.05-.31 2.169 2.169 0 011.98-.336.22.22 0 01.164.202.222.222 0 01-.321.21 1.724 1.724 0 00-1.563.284.228.228 0 01-.127.038z" fill="#263238"/><path d="M32.175 43.195c.632 3.4 1.328 9.638-1.05 11.911 0 0 .93 3.451 7.25 3.451 6.959 0 3.315-3.45 3.315-3.45-3.796-.913-3.689-3.724-3.03-6.371l-6.485-5.541z" fill="#E4897B"/><path d="M28.284 56.898c.753-1.172-.513-4.015-.513-4.015s11.186-2.818 15.76 1.507c.949.893-.102 2.21-.102 2.21l-15.145.298z" fill="#005E9A"/><path opacity=".1" d="M28.284 56.898c.753-1.172-.513-4.015-.513-4.015s11.186-2.818 15.76 1.507c.949.893-.102 2.21-.102 2.21l-15.145.298z" fill="#000"/><path d="M9.78 186.098c-.59 0-1.532-.981-1.81-1.349a.104.104 0 01-.019-.06.11.11 0 01.019-.06.11.11 0 01.042-.042.12.12 0 01.059-.015c.07 0 1.62.139 2.043.69a.512.512 0 01.102.418.454.454 0 01-.33.412l-.107.006zm-1.469-1.266c.462.532 1.202 1.133 1.519 1.057 0 0 .126-.031.164-.234a.287.287 0 00-.063-.241 2.957 2.957 0 00-1.62-.595v.013z" fill="#005E9A"/><path d="M8.38 184.819a1.625 1.625 0 01-.34 0 .1.1 0 01-.09-.07.124.124 0 010-.114c.045-.038.975-1.006 1.677-1.006a.597.597 0 01.45.19.358.358 0 01.088.443c-.184.354-1.151.557-1.784.557zm-.081-.222c.632 0 1.55-.196 1.701-.475 0 0 .045-.082-.056-.183a.375.375 0 00-.291-.12c-.52.119-.99.39-1.354.778zm43.228 15.875a8.36 8.36 0 01-1.43-.132.103.103 0 01-.082-.102.112.112 0 01.009-.064.112.112 0 01.042-.05c.07-.038 1.689-.969 2.467-.753a.546.546 0 01.348.253.416.416 0 010 .481c-.183.285-.76.367-1.354.367zm-1.069-.297c.86.127 2.037.12 2.252-.184.032-.038.057-.107 0-.24a.356.356 0 00-.215-.159c-.493-.126-1.474.292-2.037.583z" fill="#005E9A"/><path d="M50.123 200.346a.113.113 0 01-.063 0 .101.101 0 01-.045-.108 3.092 3.092 0 01.721-1.792.8.8 0 01.633-.184c.304 0 .392.184.411.304.082.526-1.025 1.533-1.588 1.786l-.07-.006zm1.132-1.9a.58.58 0 00-.38.139c-.357.4-.579.904-.632 1.438.57-.348 1.328-1.134 1.265-1.45 0 0 0-.108-.215-.127h-.038z" fill="#005E9A"/><path d="M45.011 200.232h4.65l.462-10.772h-4.65l-.462 10.772zM3.604 181.741l3.885 2.546 8.578-7.251-3.89-2.552-8.573 7.257z" fill="#E4897B"/><path d="M8.128 184.046l-4.036-3.311a.397.397 0 00-.507 0L.258 183.35a.68.68 0 00-.19.832.68.68 0 00.19.238c1.43 1.133 2.182 1.615 3.96 3.071 1.095.893 3.796 3.629 5.32 4.863 1.525 1.235 2.923-.095 2.417-.734-2.27-2.881-3.163-5.345-3.422-6.871a1.146 1.146 0 00-.405-.703zm41.502 15.648h-5.062a.411.411 0 00-.398.316l-.918 4.136a.675.675 0 00.67.829c1.83-.032 4.474-.139 6.777-.139 2.688 0 5.016.145 8.167.145 1.898 0 2.442-1.931 1.639-2.102-3.632-.798-6.605-.88-9.743-2.824a2.178 2.178 0 00-1.133-.361zM21.964 56.493c-4.03 1.9-6.327 14.628-6.327 14.628l9.85 3.932a73.411 73.411 0 003.487-10.86c1.353-5.864-2.885-9.663-7.01-7.7z" fill="#263238"/><path d="M27.19 63.667c-2.436 2.47-3.55 7.308-4.037 10.455l2.36.944a73.959 73.959 0 003.416-10.544c-.209-1.342-.727-1.88-1.74-.855z" fill="#203048"/><path d="M48.839 56.404s4.947 5.598.278 40.211H24.26c-.17-3.8 2.227-22.448-1.455-40.445a63.553 63.553 0 018.32-1.051c3.518-.21 7.046-.21 10.565 0 2.412.243 4.802.673 7.149 1.285z" fill="#263238"/><path d="M51.11 69.841l-4.188-7.225a36.956 36.956 0 00-.981 10.303c.114 2.482 2.385 11.677 4.428 13.02.543-5.348.79-10.722.74-16.097z" fill="#203048"/><path d="M51.692 61.35c.632 3.077 1.265 6.23 1.942 9.321.677 3.09 1.38 6.193 2.195 9.188.209.741.405 1.501.633 2.21l.17.545.083.272v-.031c-.044-.057-.095-.064-.057 0 .26.284.592.492.962.601.598.223 1.214.395 1.84.513 2.992.475 6.02.672 9.047.59l.601 3.444a31.21 31.21 0 01-2.473.665c-.835.196-1.658.36-2.5.487-1.74.29-3.505.41-5.27.355a14.288 14.288 0 01-2.91-.38 8.469 8.469 0 01-3.34-1.551 6.111 6.111 0 01-1.562-1.9c-.101-.19-.19-.405-.272-.589l-.114-.298-.234-.633c-.323-.804-.589-1.596-.88-2.387-1.069-3.166-1.96-6.364-2.745-9.556a138.812 138.812 0 01-2.025-9.65l6.909-1.216z" fill="#E4897B"/><path d="M42.632 59.798c-1.31 4.25 3.999 16.92 3.999 16.92l10.571-2.66s-.405-6.585-2.815-11.809c-3.632-7.878-10.186-7.548-11.755-2.45z" fill="#263238"/><path d="M68.419 84.558l5.264-.133-2.531 5.484s-2.145.285-3.903-2.609l-1.854-2.216 2.132-.425a4.77 4.77 0 01.892-.101z" fill="#E4897B"/><path d="M77.004 85.445l-3.012 4.546-2.84-.082 2.53-5.484 3.322 1.02z" fill="#E4897B"/><path d="M50.123 189.46l-.24 5.554h-4.65l.24-5.554h4.65zm-37.946-14.976l3.89 2.552-4.428 3.736-3.884-2.545 4.422-3.743z" fill="#CE6F64"/><path d="M32.466 39.573c.278 4.603.208 7.32 2.53 9.682 3.492 3.565 9.18 1.456 10.28-3.166.994-4.142.374-10.98-4.13-12.817a6.32 6.32 0 00-8.098 3.188 6.337 6.337 0 00-.582 3.113z" fill="#E4897B"/><path d="M27.05 38.762c1.145 4.198 3.84 9.036 7.326 9.347 4.328.38 6.282-4.097 6.852-8.72 2.594-1.78 1.233-3.736 3.834-3.983 3.34-.317 2.27-6.434-2.126-7.415 0 0 1.474 2.754-1.62 1.361a17.837 17.837 0 00-9.451-1.64s3.947 1.976.088 2.856c-3.859.88-5.01 3.261-3.233 4.698 0 .007-2.423.735-1.67 3.496z" fill="#263238"/><path d="M38.59 40.339a5.208 5.208 0 001.31 3.084c1.011 1.12 2.068.424 2.245-.938.165-1.222-.17-3.28-1.41-3.9-1.24-.62-2.228.373-2.145 1.754z" fill="#E4897B"/><path d="M40.298 96.615s4.53 32.833.961 45.992c-5.655 20.834-27.28 38.419-27.28 38.419l-7.332-4.813s18.417-14.849 20.669-32.295c2.024-15.66-3.056-34.6-3.056-47.31l16.038.007z" fill="#005E9A"/><path d="M42.17 115.384a30.61 30.61 0 00-3.966-3.799c.772 10.657 1.404 26.444.702 37.659a48.396 48.396 0 002.353-6.631c1.74-6.427 1.557-17.528.911-27.229z" fill="#005E9A"/><path opacity=".3" d="M42.17 115.384a30.61 30.61 0 00-3.966-3.799c.772 10.657 1.404 26.444.702 37.659a48.396 48.396 0 002.353-6.631c1.74-6.427 1.557-17.528.911-27.229z" fill="#000"/><path d="M16.934 179.386c.032 0-2.84 1.9-2.84 1.9l-8.01-5.256 2.531-2.096 8.32 5.452z" fill="#005E9A"/><path opacity=".3" d="M16.934 179.386c.032 0-2.84 1.9-2.84 1.9l-8.01-5.256 2.531-2.096 8.32 5.452z" fill="#000"/><path d="M49.117 96.615s6.997 29.699 7.49 43.89c.557 15.907-4.991 53.433-4.991 53.433h-7.877s-.968-37.817-1.316-52.306c-.386-15.799-9.647-45.017-9.647-45.017h16.34z" fill="#005E9A"/><path d="M53.128 190.803c.038 0-.443 3.267-.443 3.267h-9.578l-.26-2.919 10.28-.348z" fill="#005E9A"/><path opacity=".3" d="M53.128 190.803c.038 0-.443 3.267-.443 3.267h-9.578l-.26-2.919 10.28-.348z" fill="#000"/><path d="M170.218 68.074c.537.507.961.937 1.404 1.419.443.48.86.95 1.265 1.437a50.713 50.713 0 012.341 3.014 48.37 48.37 0 013.967 6.497l.234.463c.114.223.209.456.285.696.152.464.246.945.278 1.431a6.978 6.978 0 01-.348 2.533 12.77 12.77 0 01-2.031 3.75 27.009 27.009 0 01-5.567 5.356l-1.575-1.81a51.598 51.598 0 002.201-2.73 23.265 23.265 0 001.898-2.85 9.927 9.927 0 001.152-2.799c.081-.352.096-.718.044-1.076a1.422 1.422 0 00-.114-.348 1.049 1.049 0 00-.082-.14l-.203-.342a66.607 66.607 0 00-3.966-5.768 53.442 53.442 0 00-2.215-2.704c-.373-.444-.759-.874-1.145-1.305a31.83 31.83 0 00-1.138-1.197l3.315-3.527z" fill="#E4897B"/><path d="M171.078 92.328l-4.726-.773 2.474 4.141s3.043-.107 3.91-1.9l-1.658-1.469z" fill="#E4897B"/><path d="M162.86 93.467l2.252 3.363 3.714-1.134-2.474-4.141-3.492 1.912z" fill="#E4897B"/><path d="M170.85 200.415a1.35 1.35 0 01-.904-.247.625.625 0 01-.184-.595.379.379 0 01.222-.316c.55-.247 1.992.677 2.157.785a.098.098 0 01.041.049.104.104 0 01.003.065.1.1 0 01-.026.058.103.103 0 01-.056.03 5.52 5.52 0 01-1.253.171zm-.632-.981a.47.47 0 00-.14 0 .168.168 0 00-.068.059.158.158 0 00-.026.087.42.42 0 00.113.398c.241.216.861.247 1.69.083a4.176 4.176 0 00-1.569-.627z" fill="#005E9A"/><path d="M172.116 200.238h-.057c-.45-.26-1.316-1.266-1.209-1.817a.411.411 0 01.38-.317.57.57 0 01.474.152c.519.456.525 1.824.525 1.9a.12.12 0 01-.056.095l-.057-.013zm-.81-1.9h-.051c-.139 0-.171.076-.183.133-.064.323.474 1.096.923 1.457a2.596 2.596 0 00-.436-1.495.361.361 0 00-.132-.078c-.049-.017-.101-.022-.153-.017h.032zm-22.016 2.077a1.746 1.746 0 01-1.145-.291.625.625 0 01-.209-.544.36.36 0 01.19-.298c.588-.329 2.473.633 2.688.753.02.013.036.031.046.053.01.021.014.044.011.068a.102.102 0 01-.03.058.102.102 0 01-.058.03 7.808 7.808 0 01-1.493.171zm-.842-.981a.391.391 0 00-.209.044.144.144 0 00-.055.049.14.14 0 00-.02.072.409.409 0 00.126.36c.291.26 1.069.304 2.119.127a6.152 6.152 0 00-1.961-.652z" fill="#005E9A"/><path d="M150.764 200.238h-.051c-.563-.253-1.683-1.267-1.594-1.817 0-.127.114-.285.424-.317a.83.83 0 01.632.196c.595.494.709 1.773.709 1.83a.1.1 0 01-.008.057.113.113 0 01-.036.045.124.124 0 01-.076.006zm-1.133-1.9h-.069c-.203 0-.215.102-.222.127-.05.323.709 1.127 1.266 1.475a2.632 2.632 0 00-.633-1.462.592.592 0 00-.342-.14z" fill="#005E9A"/><path d="M158.242 53.516c-.184 2.862-.677 8.675 1.518 10.284 0 0-.399 2.932-5.58 3.616-5.694.74-3.094-2.476-3.094-2.476 3.018-1.153 2.632-3.451 1.81-5.554l5.346-5.87z" fill="#E4897B"/><path d="M146.455 48.457a.213.213 0 01-.164-.076 1.794 1.794 0 00-1.487-.633.219.219 0 01-.23-.106.228.228 0 01.167-.338 2.22 2.22 0 011.898.798.235.235 0 01.051.116.233.233 0 01-.101.22.23.23 0 01-.121.038l-.013-.02z" fill="#263238"/><path d="M145.469 51.262a10.331 10.331 0 01-1.032 2.596 1.63 1.63 0 001.386.076l-.354-2.672z" fill="#DE5753"/><path d="M145.722 50.565c.05.38-.108.71-.355.748-.246.038-.493-.254-.537-.634-.045-.38.107-.709.354-.74.247-.032.493.221.538.626z" fill="#263238"/><path d="M145.298 49.945l-.943-.146s.557.652.943.146z" fill="#263238"/><path d="M155.977 200.137h-4.745l-.316-10.987h4.744l.317 10.987zm21.541 0h-4.744l-1.525-10.987h4.745l1.524 10.987z" fill="#E4897B"/><path d="M172.482 199.605h5.327a.37.37 0 01.374.323l.632 4.223a.756.756 0 01-.448.778.774.774 0 01-.311.065c-1.854-.032-2.752-.14-5.093-.14-1.442 0-3.549.146-5.535.146-1.987 0-2.094-1.969-1.266-2.147 3.714-.798 4.302-1.899 5.549-2.957a1.26 1.26 0 01.771-.291zm-21.408 0h5.32a.378.378 0 01.38.323l.633 4.223a.773.773 0 01-.191.592.768.768 0 01-.569.251c-1.853-.032-2.752-.14-5.092-.14-1.443 0-4.429.146-6.415.146-1.987 0-2.094-1.969-1.266-2.147 3.714-.798 5.175-1.899 6.428-2.957.218-.181.489-.283.772-.291z" fill="#263238"/><path d="M150.916 189.15l.164 5.667h4.745l-.165-5.667h-4.744zm25.078 0h-4.745l.791 5.667h4.738l-.784-5.667z" fill="#CE6F64"/><path d="M158.305 47.59c.323 4.698.557 6.68-1.48 9.384-3.069 4.059-8.902 3.432-10.623-1.077-1.55-4.059-1.815-11.056 2.499-13.513a6.422 6.422 0 019.604 5.205z" fill="#E4897B"/><path d="M161.038 51.952c2.632 1.47 4.587-2.153 4.587-2.153s-4.72.513-4.296-2.298c.557-3.73-2.113-8.264-8.806-7.682a13.8 13.8 0 00-1.076.133 3.44 3.44 0 00-4.163.963c-1.898.158-4.46 2.425-2.72 5.42a2.74 2.74 0 01.557-.93c.145 1.754 1.676 4.54 3.587 4.724.411 2.4-1.183 5.18-.633 7.687.816 3.616 6.909 4.433 6.909 4.433a2.646 2.646 0 01.354-2.793c4.137 1.9 6.864.044 6.864.044-2.822-1.05-1.967-2.925-1.967-2.925a4.113 4.113 0 003.079.106 4.122 4.122 0 002.292-2.063 4.853 4.853 0 01-4.568-2.666z" fill="#263238"/><path d="M150.359 50.85a3.423 3.423 0 01-.949 2.45c-.835.868-1.86.26-2.138-.848-.247-1-.108-2.653.98-3.109a1.543 1.543 0 012.107 1.507z" fill="#E4897B"/><path d="M154.3 94.626s1.202 31.257 4.062 49.608c2.303 14.831 12.533 49.482 12.533 49.482h6.465s-5.333-33.467-6.503-48.127c-2.961-37.101 4.725-45.067-2.531-52.793l-14.026 1.83z" fill="#263238"/><path d="M159.703 104.511s-2.923-.506-4.631 5.066c.633 10.556 1.715 24.564 3.29 34.657.348 2.248.879 4.959 1.531 7.929-1.234-17.832-.19-47.652-.19-47.652z" fill="#161F33"/><path d="M149.258 95.285s-5.327 34.581-5.017 49.05c.323 15.053 5.833 49.393 5.833 49.393h6.409s-1.012-33.448-.449-48.227c.632-16.116 7.206-52.034 7.206-52.034l-13.982 1.818z" fill="#263238"/><path d="M178.296 194.019h-8.597l-.671-2.887 9.205.063.063 2.824z" fill="#005E9A"/><path opacity=".2" d="M178.296 194.019h-8.597l-.671-2.887 9.205.063.063 2.824z" fill="#000"/><path d="M168.003 63.806c2.474.241 6.232 7.276 6.232 7.276l-6.244 4.794s-5.169-4.54-4.555-7.092c.639-2.654 2.195-5.2 4.567-4.978z" fill="#005E9A"/><path d="M166.137 66.833a6.405 6.405 0 00-1.936-.215 10.725 10.725 0 00-.765 2.166c-.633 2.533 4.555 7.092 4.555 7.092l.462-.355-2.316-8.688z" fill="#005E9A"/><path opacity=".3" d="M166.137 66.833a6.405 6.405 0 00-1.936-.215 10.725 10.725 0 00-.765 2.166c-.633 2.533 4.555 7.092 4.555 7.092l.462-.355-2.316-8.688z" fill="#000"/><path d="M147.139 73.59c-1.803 4.566-3.701 9.207-5.213 13.786-.101.291-.184.57-.272.855l-.215.703a1.155 1.155 0 000 .633c.357.792.923 1.47 1.638 1.963a26.695 26.695 0 006.131 3.286l-.57 2.33a21.93 21.93 0 01-7.642-2.494 8.184 8.184 0 01-3.41-3.458c-.437-.94-.589-1.988-.437-3.014a3.63 3.63 0 01.064-.374l.063-.266.107-.48c.076-.324.152-.634.234-.95.633-2.534 1.443-4.94 2.297-7.327.854-2.388 1.746-4.743 2.752-7.093l4.473 1.9z" fill="#E4897B"/><path d="M143.299 67.181s-2.139 1.083 5.959 28.103l19.093-2.495c-1.341-7.738-1.974-12.531-.348-28.983a57.527 57.527 0 00-8.224 0 60.31 60.31 0 00-8.674 1.14c-3.663.817-7.806 2.235-7.806 2.235z" fill="#005E9A"/><path d="M168.49 91.631l1.095 1.59c.082.126-.057.278-.272.31l-20.023 2.621c-.171 0-.329-.044-.355-.152l-.392-1.69c-.031-.114.108-.235.298-.26l19.333-2.533a.348.348 0 01.316.114z" fill="#005E9A"/><path opacity=".2" d="M168.49 91.631l1.095 1.59c.082.126-.057.278-.272.31l-20.023 2.621c-.171 0-.329-.044-.355-.152l-.392-1.69c-.031-.114.108-.235.298-.26l19.333-2.533a.348.348 0 01.316.114z" fill="#000"/><path d="M166.175 94.132l.519-.07c.101 0 .171-.075.158-.139l-.531-2.19a.185.185 0 00-.216-.089l-.518.063c-.108 0-.177.076-.158.146l.531 2.184c.013.07.114.108.215.095zm-12.552 1.621l.519-.07c.101 0 .177-.075.158-.139l-.531-2.19a.197.197 0 00-.215-.096l-.519.07c-.101 0-.177.076-.158.14l.531 2.19c.013.095.114.133.215.095z" fill="#263238"/><path d="M144.191 76.351c.525 2.445 1.265 5.541 2.347 9.46l.234-9.935-2.581.475z" fill="#005E9A"/><path opacity=".3" d="M144.191 76.351c.525 2.445 1.265 5.541 2.347 9.46l.234-9.935-2.581.475z" fill="#000"/><path d="M143.299 67.182c-2.373.956-4.429 9.08-4.429 9.08l8.161 3.977s3.942-9.936 2.176-11.873c-1.765-1.938-3.175-2.28-5.908-1.184zm14.278 126.837h-8.597l-.671-2.887 9.572.063-.304 2.824z" fill="#005E9A"/><path opacity=".2" d="M157.577 194.019h-8.597l-.671-2.887 9.572.063-.304 2.824z" fill="#000"/><path d="M149.34 94.031l-.689-.285a1.039 1.039 0 00-1.417 1.115l.499 3.299a1.133 1.133 0 00.534.803 1.124 1.124 0 00.959.096c.251-.091.486-.221.696-.386a1.902 1.902 0 00.684-1.57l-.07-1.368a1.904 1.904 0 00-1.196-1.704z" fill="#E4897B"/></svg>