<svg width="7" height="10" viewBox="0 0 7 10" fill="none" xmlns="http://www.w3.org/2000/svg">
<path fill-rule="evenodd" clip-rule="evenodd" d="M2.32275 3.9861C2.32275 3.42615 2.76844 2.97221 3.31821 2.97221C3.868 2.97221 4.31366 3.42615 4.31366 3.9861C4.31366 4.54607 3.868 4.99999 3.31821 4.99999C2.76844 4.99999 2.32275 4.54607 2.32275 3.9861ZM3.31821 3.64814C3.13495 3.64814 2.98639 3.79945 2.98639 3.9861C2.98639 4.17275 3.13495 4.32407 3.31821 4.32407C3.50147 4.32407 3.65003 4.17275 3.65003 3.9861C3.65003 3.79945 3.50147 3.64814 3.31821 3.64814Z" fill="#333333"/>
<path fill-rule="evenodd" clip-rule="evenodd" d="M3.3179 7.70371L3.52871 7.96469L3.3179 8.14134L3.10698 7.96462L3.1045 7.96253L3.09812 7.95715C3.09264 7.95249 3.08471 7.94576 3.0745 7.93701C3.05409 7.9195 3.02454 7.89399 2.98717 7.86117C2.91245 7.79557 2.80629 7.70064 2.67917 7.58218C2.42534 7.34571 2.08581 7.01353 1.74522 6.63234C1.4058 6.25247 1.05853 5.81636 0.79431 5.37204C0.534526 4.93512 0.331543 4.45177 0.331543 3.98612C0.331543 2.30626 1.66858 0.944458 3.3179 0.944458C4.96724 0.944458 6.30427 2.30626 6.30427 3.98612C6.30427 4.45177 6.10129 4.93512 5.84151 5.37204C5.57729 5.81636 5.23001 6.25247 4.89059 6.63234C4.54998 7.01353 4.21046 7.34571 3.95665 7.58218C3.8295 7.70064 3.72335 7.79557 3.64863 7.86117C3.61127 7.89399 3.58173 7.9195 3.56129 7.93701C3.55111 7.94576 3.54318 7.95249 3.5377 7.95715L3.5313 7.96253L3.52901 7.96445C3.52901 7.96445 3.52871 7.96469 3.3179 7.70371ZM3.3179 1.62038C2.0351 1.62038 0.995179 2.67956 0.995179 3.98612C0.995179 4.26707 1.12401 4.62173 1.36196 5.02188C1.59546 5.41456 1.91183 5.81454 2.23604 6.17741C2.55909 6.53896 2.8832 6.8562 3.1271 7.08345C3.19843 7.14993 3.26272 7.2085 3.3179 7.25808C3.37309 7.2085 3.43739 7.14993 3.5087 7.08345C3.75262 6.8562 4.07674 6.53896 4.39976 6.17741C4.72398 5.81454 5.04034 5.41456 5.27384 5.02188C5.51179 4.62173 5.64063 4.26707 5.64063 3.98612C5.64063 2.67956 4.60071 1.62038 3.3179 1.62038ZM3.10698 7.96462C3.10698 7.96462 3.10709 7.96469 3.3179 7.70371L3.10698 7.96462Z" fill="#333333"/>
<path fill-rule="evenodd" clip-rule="evenodd" d="M1.70791 7.81383C1.88918 7.78635 2.01426 7.61443 1.9873 7.42983C1.96033 7.2452 1.79153 7.11779 1.61027 7.14527C1.19814 7.20769 0.836968 7.29458 0.570246 7.40516C0.438325 7.45984 0.310637 7.52791 0.210334 7.61575C0.112066 7.70179 0 7.8439 0 8.04165C0 8.19849 0.0717075 8.32199 0.148396 8.40681C0.223446 8.48982 0.318182 8.55363 0.412171 8.60391C0.600833 8.7049 0.852032 8.78557 1.13452 8.84951C1.70488 8.97861 2.47675 9.05553 3.31818 9.05553C4.1596 9.05553 4.93148 8.97861 5.50184 8.84951C5.78432 8.78557 6.03554 8.7049 6.22418 8.60391C6.31818 8.55363 6.41291 8.48982 6.48797 8.40681C6.56465 8.32199 6.63636 8.19849 6.63636 8.04165C6.63636 7.8439 6.52431 7.70179 6.42602 7.61575C6.32571 7.52791 6.19803 7.45984 6.0661 7.40516C5.79938 7.29458 5.43823 7.20769 5.02608 7.14527C4.84484 7.11779 4.67601 7.2452 4.64907 7.42983C4.62209 7.61443 4.74719 7.78635 4.92846 7.81383C5.31665 7.87263 5.61911 7.94962 5.81594 8.0312C5.82447 8.03475 5.83263 8.03823 5.84049 8.04165C5.72632 8.09153 5.56532 8.14273 5.35787 8.18967C4.8474 8.30522 4.12609 8.37961 3.31818 8.37961C2.51028 8.37961 1.78897 8.30522 1.27848 8.18967C1.07104 8.14273 0.910034 8.09153 0.795865 8.04165C0.80372 8.03823 0.811899 8.03475 0.82041 8.0312C1.01724 7.94962 1.31971 7.87263 1.70791 7.81383Z" fill="#333333"/>
</svg>
