<svg width="172" height="159" viewBox="0 0 172 159" fill="none" xmlns="http://www.w3.org/2000/svg">
<path d="M82.7983 144.854C83.7669 144.854 84.5351 144.086 84.5351 143.117C84.5351 142.149 83.7669 141.381 82.7983 141.381C81.8297 141.381 81.0615 142.149 81.0615 143.117C81.0615 144.086 81.8297 144.854 82.7983 144.854Z" fill="#CFCFCF"/>
<path d="M32.2641 22.4111C31.7631 22.4111 31.3623 22.0103 31.3623 21.5093V13.8942C31.3623 13.3932 31.7631 12.9924 32.2641 12.9924C32.7651 12.9924 33.1659 13.3932 33.1659 13.8942V21.5427C33.1325 22.0103 32.7317 22.4111 32.2641 22.4111Z" fill="#BABABA"/>
<path d="M36.0718 18.6036H28.4233C27.9223 18.6036 27.5215 18.2028 27.5215 17.7018C27.5215 17.2008 27.9223 16.8 28.4233 16.8H36.0718C36.5728 16.8 36.9736 17.2008 36.9736 17.7018C36.9736 18.2028 36.5728 18.6036 36.0718 18.6036Z" fill="#BABABA"/>
<path d="M95.1225 3.47356C96.0911 3.47356 96.8593 2.70537 96.8593 1.73678C96.8593 0.768195 96.0911 0 95.1225 0C94.1539 0 93.3857 0.768195 93.3857 1.73678C93.3857 2.70537 94.1539 3.47356 95.1225 3.47356Z" fill="#CFCFCF"/>
<path d="M4.70941 147.493C4.20841 147.493 3.80762 147.092 3.80762 146.591V138.942C3.80762 138.441 4.20841 138.041 4.70941 138.041C5.2104 138.041 5.61119 138.441 5.61119 138.942V146.591C5.61119 147.092 5.2104 147.493 4.70941 147.493Z" fill="#BABABA"/>
<path d="M8.5503 143.652H0.901794C0.400799 143.652 0 143.251 0 142.75C0 142.249 0.400799 141.848 0.901794 141.848H8.5503C9.0513 141.848 9.45209 142.249 9.45209 142.75C9.45209 143.251 9.0179 143.652 8.5503 143.652Z" fill="#BABABA"/>
<path d="M135.903 136.07H23.3133C22.5451 136.07 21.8103 135.903 21.1423 135.603C20.4743 135.302 19.8397 134.834 19.3721 134.267C18.8711 133.699 18.5371 133.031 18.3367 132.296C18.1364 131.561 18.103 130.826 18.2032 130.058L32.5984 42.7182C32.7988 41.5158 33.4 40.4136 34.3686 39.612C35.3037 38.8104 36.5061 38.3762 37.7419 38.3762H150.332C151.1 38.3762 151.835 38.5432 152.503 38.8438C153.171 39.1444 153.806 39.612 154.273 40.1798C154.774 40.7476 155.108 41.4156 155.309 42.1504C155.509 42.8852 155.542 43.6534 155.409 44.3882L141.08 131.695C140.88 132.931 140.245 134.033 139.31 134.834C138.342 135.669 137.139 136.103 135.903 136.07Z" fill="#D2D2D2"/>
<path d="M137.307 36.105L70.4745 6.27918C68.504 5.41079 66.1994 6.27918 65.331 8.24976L44.1556 55.6772C43.2873 57.6478 44.1556 59.9524 46.1262 60.8207L112.959 90.6466C114.929 91.515 117.234 90.6466 118.102 88.676L139.278 41.2486C140.146 39.278 139.278 36.9734 137.307 36.105Z" fill="white"/>
<path d="M114.528 91.8822C113.86 91.8822 113.192 91.7486 112.591 91.448L45.7583 61.6556C44.5893 61.1212 43.6875 60.186 43.2199 58.9836C42.7523 57.7812 42.7857 56.4786 43.3201 55.3097L64.4954 7.88222C65.5642 5.47745 68.4032 4.37526 70.8414 5.44404L137.674 35.2699C138.843 35.8043 139.745 36.7395 140.212 37.9419C140.68 39.1443 140.647 40.4468 140.112 41.6158L118.937 89.0433C118.402 90.2122 117.467 91.114 116.265 91.5816C115.664 91.782 115.096 91.8822 114.528 91.8822ZM68.8708 6.81343C67.7018 6.81343 66.5996 7.48142 66.0986 8.61701L44.9233 56.0445C44.5893 56.7792 44.5559 57.6142 44.8565 58.349C45.1571 59.1172 45.7249 59.685 46.4597 60.019L113.292 89.8449C114.027 90.1788 114.862 90.2122 115.597 89.9117C116.365 89.6111 116.933 89.0433 117.267 88.3085L138.442 40.881C138.776 40.1462 138.81 39.3112 138.509 38.5765C138.208 37.8083 137.641 37.2405 136.906 36.9065L70.0732 7.08063C69.7058 6.88023 69.305 6.81343 68.8708 6.81343Z" fill="#BABABA"/>
<path d="M103.773 56.3786C103.74 56.3786 103.673 56.3786 103.64 56.3786C103.306 56.3118 103.105 55.9778 103.172 55.6438C103.807 52.8382 103.439 49.8656 102.137 47.2939C100.834 44.7221 98.6633 42.6513 96.0247 41.4823C93.3861 40.3133 90.4136 40.0795 87.6414 40.8477C84.8692 41.6159 82.3977 43.3193 80.7277 45.6573C80.5273 45.9245 80.1599 45.9913 79.8927 45.7909C79.6255 45.5905 79.5587 45.2231 79.7591 44.9559C81.5961 42.3841 84.268 40.5137 87.3408 39.6788C90.3802 38.8438 93.6533 39.1109 96.5591 40.3801C99.4315 41.6493 101.836 43.9205 103.239 46.7595C104.675 49.5984 105.076 52.8382 104.375 55.911C104.308 56.1781 104.074 56.3786 103.773 56.3786Z" fill="#BABABA"/>
<path d="M112.223 42.618C113.225 42.618 114.06 41.7831 114.06 40.7811C114.06 39.7791 113.225 38.9441 112.223 38.9441C111.221 38.9441 110.386 39.7791 110.386 40.7811C110.386 41.7831 111.221 42.618 112.223 42.618Z" fill="#BABABA"/>
<path d="M85.7374 30.7946C86.7394 30.7946 87.5743 29.9596 87.5743 28.9576C87.5743 27.9556 86.7394 27.1206 85.7374 27.1206C84.7354 27.1206 83.9004 27.9556 83.9004 28.9576C83.9004 29.9596 84.7354 30.7946 85.7374 30.7946Z" fill="#BABABA"/>
<path d="M135.403 136.037H22.2785C20.9091 136.037 19.5731 135.469 18.6045 134.5C17.636 133.532 17.1016 132.196 17.1016 130.826V51.0681C17.1016 50.3667 17.2018 49.6987 17.469 49.0307C17.7362 48.3961 18.1035 47.7949 18.5711 47.2939C19.0387 46.7929 19.6399 46.3921 20.2745 46.1249C20.9091 45.8577 21.6105 45.7241 22.2785 45.7241H63.4936C64.4622 45.7241 65.3974 45.9913 66.199 46.4923C67.0006 46.9933 67.6686 47.6947 68.1028 48.5631L73.9811 60.0526C74.4153 60.921 75.0833 61.6223 75.8849 62.1233C76.6865 62.6243 77.6217 62.8915 78.5902 62.8915H135.403C136.772 62.8915 138.108 63.4259 139.077 64.3945C140.046 65.3631 140.58 66.6991 140.58 68.0685V130.793C140.58 132.162 140.046 133.498 139.077 134.467C138.108 135.502 136.772 136.037 135.403 136.037Z" fill="white"/>
<path d="M135.403 136.938H22.2783C20.6417 136.938 19.1387 136.304 17.9697 135.135C16.8341 133.999 16.1995 132.463 16.1995 130.826V51.068C16.1661 50.2664 16.3331 49.4649 16.6337 48.7301C16.9343 47.9619 17.3685 47.2939 17.9363 46.6927C18.5041 46.1249 19.1721 45.6573 19.9069 45.3233C20.6417 44.9893 21.4433 44.8557 22.2783 44.8557H63.4934C64.629 44.8557 65.6978 45.1563 66.6663 45.7575C67.6349 46.3587 68.4031 47.1937 68.9041 48.1957L74.7824 59.6851C75.1498 60.3865 75.6842 60.9877 76.3522 61.3885C77.0202 61.7893 77.7884 62.0231 78.59 62.0231H135.403C137.039 62.0231 138.542 62.6577 139.711 63.7933C140.847 64.9289 141.481 66.4653 141.481 68.1018V130.826C141.481 132.463 140.847 133.966 139.711 135.135C138.542 136.304 137.039 136.938 135.403 136.938ZM22.2783 46.6259C21.7105 46.6259 21.1427 46.7595 20.6083 46.9599C20.0739 47.1937 19.6063 47.4943 19.2055 47.9285C18.8047 48.3293 18.5041 48.8303 18.2703 49.3647C18.0699 49.8991 17.9697 50.4668 17.9697 51.0346V130.826C17.9697 131.962 18.4039 133.064 19.2389 133.866C20.0405 134.667 21.1427 135.135 22.2783 135.135H135.403C136.538 135.135 137.641 134.667 138.442 133.866C139.244 133.064 139.711 131.962 139.711 130.826V68.1352C139.711 66.9996 139.277 65.8975 138.442 65.0959C137.641 64.2943 136.538 63.8267 135.403 63.8267H78.59C77.4544 63.8267 76.3856 63.5261 75.417 62.9249C74.4485 62.3237 73.6803 61.4887 73.1793 60.4867L67.3009 48.9973C66.9335 48.2959 66.3991 47.6947 65.7312 47.2939C65.0632 46.8931 64.295 46.6593 63.4934 46.6593H22.2783V46.6259Z" fill="#BABABA"/>
<path d="M150.298 132.363C150.065 132.363 149.831 132.262 149.664 132.095L140.846 123.278C140.512 122.944 140.512 122.376 140.846 122.009C141.18 121.641 141.748 121.675 142.115 122.009L150.933 130.826C151.267 131.16 151.267 131.728 150.933 132.095C150.766 132.262 150.532 132.363 150.298 132.363Z" fill="#BABABA"/>
<path d="M166.898 10.2871C166.397 10.2871 165.996 9.88626 165.996 9.38526V1.73675C165.996 1.23576 166.397 0.834961 166.898 0.834961C167.399 0.834961 167.8 1.23576 167.8 1.73675V9.38526C167.766 9.88626 167.365 10.2871 166.898 10.2871Z" fill="#BABABA"/>
<path d="M170.706 6.44616H163.057C162.556 6.44616 162.155 6.04536 162.155 5.54437C162.155 5.04337 162.556 4.64258 163.057 4.64258H170.706C171.207 4.64258 171.607 5.04337 171.607 5.54437C171.607 6.04536 171.207 6.44616 170.706 6.44616Z" fill="#BABABA"/>
<path d="M98.9471 65.9019C92.4008 65.9019 86.0215 67.839 80.5773 71.4462C75.1332 75.0868 70.8914 80.2303 68.3865 86.2756C65.8815 92.3209 65.2135 98.9675 66.4827 105.38C67.7519 111.793 70.8914 117.671 75.534 122.314C80.1431 126.923 86.0549 130.096 92.4676 131.365C98.8803 132.634 105.527 132 111.572 129.495C117.617 126.99 122.761 122.748 126.402 117.337C130.042 111.927 131.979 105.514 131.979 98.9675C131.979 90.2168 128.506 81.8001 122.293 75.6211C116.081 69.3754 107.698 65.9019 98.9471 65.9019Z" fill="white"/>
<path d="M98.9476 132.868C96.7432 132.868 94.5055 132.634 92.3011 132.2C85.688 130.897 79.676 127.658 74.9333 122.915C70.1571 118.139 66.9508 112.127 65.6482 105.547C64.3456 98.934 65.0136 92.1539 67.5854 85.9416C70.1571 79.7292 74.4991 74.4521 80.0768 70.7113C85.688 66.9706 92.2009 65 98.9142 65C98.9142 65 98.9142 65 98.9476 65C107.999 65 116.516 68.5404 122.929 74.9531C129.341 81.3658 132.848 89.8827 132.848 98.934C132.848 105.681 130.878 112.194 127.137 117.771C123.396 123.383 118.119 127.691 111.907 130.263C107.765 132 103.356 132.868 98.9476 132.868ZM98.9142 66.7702C92.5349 66.7702 86.356 68.6406 81.0788 72.1809C75.7683 75.7213 71.6601 80.6978 69.222 86.6096C66.7838 92.4879 66.1492 98.934 67.385 105.18C68.6208 111.425 71.6601 117.137 76.1691 121.646C80.678 126.155 86.3894 129.194 92.6351 130.463C98.8808 131.699 105.327 131.064 111.205 128.626C117.117 126.188 122.094 122.08 125.634 116.769C129.174 111.459 131.045 105.28 131.045 98.9006C131.045 90.3169 127.705 82.2342 121.626 76.1555C115.581 70.1435 107.531 66.7702 98.9142 66.7702Z" fill="#BABABA"/>
<path d="M130.243 127.424L127.505 130.296C126.269 131.565 126.336 133.603 127.605 134.839L151.352 157.55C152.621 158.786 154.658 158.719 155.894 157.45L158.633 154.578C159.869 153.309 159.802 151.271 158.533 150.035L134.786 127.324C133.516 126.088 131.479 126.155 130.243 127.424Z" fill="#D2D2D2"/>
</svg>
