<svg id="Component_30_3" data-name="Component 30 3" xmlns="http://www.w3.org/2000/svg" viewBox="0 0 162 42"><title>Artboard 1</title><path d="M86.25,10.43a7.43,7.43,0,0,1,4.7,12,8.25,8.25,0,0,1-2.6,2c-.2.1-.3-.1-.2.3l5.8,5.9.2.6c0,.3-.2.4-.5.5a34.25,34.25,0,0,1-5.6-.1l-6.3-7.1c-.4-1-.7-2.6.1-3.5,1.4-1.6,5.9.4,5.9-3.1,0-1-1-2.4-2-2.4H56.65c-.3,0-.5-.8-.5-1-.1-.6-.2-3.9.5-3.9h29.6Z" fill="#243651"/><path d="M120.35,18.73l-5,12.8c-.2.2-.4.2-.7.3a32.65,32.65,0,0,1-4.5-.1.83.83,0,0,1-.3-.8c2.7-6.2,4.4-13.1,7-19.3a3.55,3.55,0,0,1,.4-.9c.3-.3,4.4-.4,5-.2a1.39,1.39,0,0,1,.8.7l7.4,19.7-.2.7c-.1.2-.4.2-.6.2a26.7,26.7,0,0,1-4,0c-.3,0-.5,0-.7-.3Z" fill="#243651"/><path d="M54.55,31.73a2.72,2.72,0,0,1-.8-1l-4.4-11.9c-.5,0-.7,1-.8,1.3-1.4,3.6-2.6,7.2-3.9,10.8a5.07,5.07,0,0,1-.6.7h-4.9l-.1-1,7.3-19.9a.87.87,0,0,1,.9-.4,17.37,17.37,0,0,1,4.6.2,1.7,1.7,0,0,1,.6.8c2.6,6,4.2,13.1,6.9,19.1.1.4.2.9-.2,1.2h-4.6Z" fill="#243651"/><path d="M113.75,10.43c.1,0,.3.3.3.5l-7.8,14c-.4,1.4.4,5.5-.2,6.4-.3.5-4.3.5-4.7.1-.9-.7-.2-5.3-.6-6.7l-7.6-13.3c-.2-.7-.1-.9.6-1a28.58,28.58,0,0,1,5.1.1c.9.7,4.3,8.5,4.9,8.3s3.7-7.7,4.8-8.4Z" fill="#243651"/><path d="M25.75,23.93l2.5-5.7c.3,2.5,1.9,5.2,2.3,7.6.1.7-1.3,3.9-1.7,4.7a4.73,4.73,0,0,1-.7,1.2,22,22,0,0,1-4.5.1.91.91,0,0,1-.8-.4c-1.4-3-3.3-5.9-4.7-8.9A102.77,102.77,0,0,1,14,12.13c-.1-.4-.6-1.2,0-1.5a38.81,38.81,0,0,1,4.9-.1c.8.1,1,.6,1.3,1.2,1.9,3.6,3.1,8.1,4.9,11.8,0,.3.3.4.7.4" fill="#243651"/><path d="M31.85,23.83c0-.1-.3-.5-.4-.8-.4-1.4-2.4-6.9-2.2-7.8.2-.6,1.3-3.1,1.6-3.8a5.55,5.55,0,0,0,.6-.8c.4-.3,4.2-.3,5-.2s.8.5.9,1.2c.5,6-.4,12.7,0,18.8,0,.5-.1,1.1-.7,1.2a26.7,26.7,0,0,1-4,0c-.2,0-.7-.3-.7-.5v-7.3Z" fill="#243651"/><path d="M14,31.73l-.5-1V16.83a7.94,7.94,0,0,1,1.3,2.6A90.7,90.7,0,0,1,18.65,30c.1.6.3,1.3-.2,1.7Z" fill="#243651"/><path d="M133.15,24.83h2.9a1.11,1.11,0,0,0,1.1-1.1V11.63a1.11,1.11,0,0,0-1.1-1.1h-2.9a1.11,1.11,0,0,0-1.1,1.1v12.1a1.11,1.11,0,0,0,1.1,1.1" fill="#243651"/><path d="M75.75,31.63h2.9a1.11,1.11,0,0,0,1.1-1.1v-9.6a1.11,1.11,0,0,0-1.1-1.1h-2.9a1.11,1.11,0,0,0-1.1,1.1v9.6a1.11,1.11,0,0,0,1.1,1.1" fill="#243651"/><path d="M64.35,31.63h2.9a1.11,1.11,0,0,0,1.1-1.1v-9.6a1.11,1.11,0,0,0-1.1-1.1h-2.9a1.11,1.11,0,0,0-1.1,1.1v9.6a1.11,1.11,0,0,0,1.1,1.1" fill="#243651"/><path d="M132.05,28v2.6a1.11,1.11,0,0,0,1.1,1.1h14.3a1.11,1.11,0,0,0,1.1-1.1V28a1.11,1.11,0,0,0-1.1-1.1h-14.3a1.11,1.11,0,0,0-1.1,1.1" fill="#243651"/><path d="M122.45,28.63a2.2,2.2,0,1,1-2.2-2.2,2.16,2.16,0,0,1,2.2,2.2" fill="#243651"/><path d="M51.45,28.43a2.2,2.2,0,1,1-2.2-2.2,2.22,2.22,0,0,1,2.2,2.2" fill="#243651"/><path d="M55.05,34.33c-.1-.2.1-.4.3-.4h49.8s.5.1.2.8l-3.4,7.1s-.5.5-1-.2l-4.4-3.9h-40c-.1,0-.2-.1-.3-.2Z" fill="#f87b39"/></svg>