<?xml version="1.0" encoding="utf-8"?>
<!-- Generator: Adobe Illustrator 25.3.0, SVG Export Plug-In . SVG Version: 6.00 Build 0)  -->
<svg version="1.1" id="Layer_1" xmlns="http://www.w3.org/2000/svg" xmlns:xlink="http://www.w3.org/1999/xlink" x="0px" y="0px"
	 viewBox="0 0 2400 2400" style="enable-background:new 0 0 2400 2400;" xml:space="preserve">
<style type="text/css">
	.st0{fill:#7D1149;}
</style>
<g>
	<g>
		<path class="st0" d="M1775.8,2166.8H541.6c-61.6,0-111.8-50.1-111.8-111.8V565.5c0-15.5,12.5-28,28-28s28,12.5,28,28V2055
			c0,30.7,25,55.7,55.7,55.7h1234.3c30.7,0,55.7-25,55.7-55.7V593.6H876.4c-15.5,0-28-12.5-28-28c0-15.5,12.5-28,28-28h983.2
			c15.5,0,28,12.5,28,28V2055C1887.6,2116.7,1837.5,2166.8,1775.8,2166.8z"/>
	</g>
	<g>
		<g>
			<path class="st0" d="M2071.5,593.6h-1204c-15.5,0-28-12.5-28-28c0-15.5,12.5-28,28-28h1166.3c-37.5-99.7-129.9-166.7-235.4-166.7
				c-1.7,0-3.4,0-5,0l-0.7,0c-0.2,0-0.4,0-0.5,0H672.8c-103.1,0-187,83.9-187,187c0,15.5-12.5,28-28,28c-15.5,0-28-12.5-28-28
				c0-134,109-243,243-243H1792l0.4,0c2,0,4.1-0.1,6.1-0.1c35.7,0,70.7,6.3,104,18.6c32.2,11.9,62,29.2,88.8,51.3
				c26.5,21.9,49.2,47.9,67.4,77.4c18.6,30,32.1,62.6,40.1,97.1c1.9,8.3,0,17.1-5.4,23.8C2088.2,589.7,2080.1,593.6,2071.5,593.6z"
				/>
		</g>
		<g>
			<path class="st0" d="M867.5,593.6c-15.5,0-28-12.5-28-28V548c0-97-78.9-176.3-175.8-176.8c-15.4-0.1-27.9-12.6-27.9-28
				c0-15.5,12.5-28,28-28h0c0.1,0,0.1,0,0.2,0c61.8,0.3,120,24.7,163.7,68.7c43.8,44,67.8,102.3,67.8,164.2v17.6
				C895.6,581,883,593.6,867.5,593.6z"/>
		</g>
	</g>
	<g>
		<g>
			<g>
				<path class="st0" d="M1158.7,1362c-3.2,0-6.5-0.6-9.6-1.7c-70.9-25.9-129.2-68.7-173.1-127.3c-34.8-46.4-60.5-102.5-76.4-166.7
					c-26.8-108-16.8-201.6-16.4-205.5c1.5-13.6,12.7-24.2,26.4-24.9c111.4-5.6,229.3-109,230.5-110.1c10.6-9.4,26.6-9.4,37.2,0
					c1.2,1,119.1,104.4,230.5,110c13.7,0.7,24.9,11.2,26.4,24.9c0.4,3.9,10.4,97.5-16.4,205.5c-15.9,64.3-41.6,120.4-76.4,166.7
					c-43.9,58.6-102.2,101.4-173.1,127.3C1165.2,1361.4,1162,1362,1158.7,1362z M937.5,889.3c-1.2,32.4-0.4,96.1,16.9,165
					c31.2,124.3,100,208.2,204.4,249.7c104.4-41.4,173.1-125.4,204.4-249.7c17.3-68.8,18-132.6,16.9-165
					c-94.6-14-183.6-76.7-221.2-106.2C1121.1,812.7,1032.1,875.3,937.5,889.3z"/>
			</g>
			<g>
				<path class="st0" d="M1158.7,1253.9c-3.7,0-7.3-0.7-10.8-2.2c-40.3-16.8-74.3-42.2-101-75.4c-26.2-32.7-45.6-73.3-57.6-120.7
					c-11.9-47.1-13.9-90.9-13.5-119.5c0.2-13.3,9.7-24.6,22.8-27.1c59.2-11.3,115.2-48.6,143.2-69.8c10-7.6,23.8-7.6,33.8,0
					c28.1,21.2,84,58.5,143.2,69.8c13.1,2.5,22.6,13.8,22.8,27.1c0.4,28.5-1.6,72.4-13.5,119.4c-12,47.4-31.4,88.1-57.6,120.7
					c-26.7,33.2-60.6,58.6-101,75.4C1166,1253.2,1162.4,1253.9,1158.7,1253.9z M1032.1,958.7c0.9,23.3,3.8,52.6,11.6,83.2
					c18.7,73.9,57.4,125.4,115.1,153.3c57.7-27.9,96.4-79.4,115.1-153.3c7.8-30.6,10.7-59.9,11.6-83.2
					c-50.6-14.2-96.3-41.3-126.6-62.5C1128.3,917.3,1082.7,944.5,1032.1,958.7z"/>
			</g>
		</g>
		<g>
			<g>
				<path class="st0" d="M1371.1,1985.6H946.3c-15.5,0-28-12.5-28-28c0-15.5,12.5-28,28-28h424.7c15.5,0,28,12.5,28,28
					C1399.1,1973,1386.5,1985.6,1371.1,1985.6z"/>
			</g>
			<g>
				<path class="st0" d="M1477.5,1816.5H839.9c-15.5,0-28-12.5-28-28c0-15.5,12.5-28,28-28h637.5c15.5,0,28,12.5,28,28
					C1505.5,1804,1492.9,1816.5,1477.5,1816.5z"/>
			</g>
			<g>
				<path class="st0" d="M1477.5,1647.5H839.9c-15.5,0-28-12.5-28-28c0-15.5,12.5-28,28-28h637.5c15.5,0,28,12.5,28,28
					C1505.5,1635,1492.9,1647.5,1477.5,1647.5z"/>
			</g>
			<g>
				<path class="st0" d="M1477.5,1478.5H839.9c-15.5,0-28-12.5-28-28c0-15.5,12.5-28,28-28h637.5c15.5,0,28,12.5,28,28
					C1505.5,1465.9,1492.9,1478.5,1477.5,1478.5z"/>
			</g>
		</g>
	</g>
</g>
</svg>
