<svg width="20" height="20" viewBox="0 0 20 20" fill="none" xmlns="http://www.w3.org/2000/svg">
<path d="M10.7612 14.1667H16.7395M10.7612 14.1667L9.16699 17.5M10.7612 14.1667L13.1489 9.17419C13.3413 8.77189 13.4375 8.57075 13.5691 8.50718C13.6836 8.4519 13.817 8.4519 13.9315 8.50718C14.0631 8.57075 14.1593 8.77189 14.3517 9.17419L16.7395 14.1667M16.7395 14.1667L18.3337 17.5M1.66699 4.16667H6.66699M6.66699 4.16667H9.58366M6.66699 4.16667V2.5M9.58366 4.16667H11.667M9.58366 4.16667C9.17021 6.63107 8.21081 8.86349 6.80495 10.737M8.33366 11.6667C7.82322 11.4373 7.30253 11.1184 6.80495 10.737M6.80495 10.737C5.67784 9.87314 4.66929 8.68886 4.16699 7.5M6.80495 10.737C5.46771 12.5191 3.72652 13.9765 1.66699 15" stroke="#7D124B" stroke-width="2" stroke-linecap="round" stroke-linejoin="round"/>
</svg>
