<svg width="18" height="18" viewBox="0 0 18 18" fill="none" xmlns="http://www.w3.org/2000/svg">
<path d="M12.3333 5.66628V2.75016C12.3333 2.05704 12.3333 1.71048 12.1873 1.49751C12.0598 1.31143 11.8622 1.18503 11.6398 1.14718C11.3852 1.10386 11.0706 1.24909 10.4413 1.53955L3.04918 4.95127C2.48792 5.21031 2.20729 5.33984 2.00175 5.54071C1.82005 5.71829 1.68135 5.93507 1.59625 6.17447C1.5 6.44527 1.5 6.75435 1.5 7.3725V11.4996M12.75 11.0829H12.7583M1.5 8.33295L1.5 13.8329C1.5 14.7664 1.5 15.2331 1.68166 15.5896C1.84144 15.9032 2.09641 16.1582 2.41002 16.318C2.76654 16.4996 3.23325 16.4996 4.16667 16.4996H13.8333C14.7668 16.4996 15.2335 16.4996 15.59 16.318C15.9036 16.1582 16.1586 15.9032 16.3183 15.5896C16.5 15.2331 16.5 14.7664 16.5 13.8329V8.33295C16.5 7.39953 16.5 6.93282 16.3183 6.5763C16.1586 6.26269 15.9036 6.00773 15.59 5.84794C15.2335 5.66628 14.7668 5.66628 13.8333 5.66628L4.16667 5.66628C3.23325 5.66628 2.76654 5.66628 2.41002 5.84793C2.09641 6.00772 1.84144 6.26269 1.68166 6.57629C1.5 6.93281 1.5 7.39952 1.5 8.33295ZM13.1667 11.0829C13.1667 11.3131 12.9801 11.4996 12.75 11.4996C12.5199 11.4996 12.3333 11.3131 12.3333 11.0829C12.3333 10.8528 12.5199 10.6663 12.75 10.6663C12.9801 10.6663 13.1667 10.8528 13.1667 11.0829Z" stroke="#7D124B" stroke-width="2" stroke-linecap="round" stroke-linejoin="round"/>
</svg>
