<svg id="Component_30_3" data-name="Component 30 3" xmlns="http://www.w3.org/2000/svg" viewBox="0 0 162 42"><title>Artboard 11</title><path d="M86.2,6.2a7.43,7.43,0,0,1,4.7,12,8.25,8.25,0,0,1-2.6,2c-.2.1-.3-.1-.2.3l5.8,5.9.2.6c0,.3-.2.4-.5.5a34.25,34.25,0,0,1-5.6-.1l-6.3-7.1c-.4-1-.7-2.6.1-3.5,1.4-1.6,5.9.4,5.9-3.1,0-1-1-2.4-2-2.4H56.6c-.3,0-.5-.8-.5-1-.1-.6-.2-3.9.5-3.9H86.2Z" fill="#fdfeff"/><path d="M120.3,14.5l-5,12.8c-.2.2-.4.2-.7.3a32.65,32.65,0,0,1-4.5-.1.83.83,0,0,1-.3-.8c2.7-6.2,4.4-13.1,7-19.3a3.55,3.55,0,0,1,.4-.9c.3-.3,4.4-.4,5-.2a1.39,1.39,0,0,1,.8.7l7.4,19.7-.2.7c-.1.2-.4.2-.6.2a26.7,26.7,0,0,1-4,0c-.3,0-.5,0-.7-.3Z" fill="#fdfeff"/><path d="M54.5,27.5a2.72,2.72,0,0,1-.8-1L49.3,14.6c-.5,0-.7,1-.8,1.3-1.4,3.6-2.6,7.2-3.9,10.8a5.07,5.07,0,0,1-.6.7H39.1l-.1-1L46.3,6.5a.87.87,0,0,1,.9-.4,17.37,17.37,0,0,1,4.6.2,1.7,1.7,0,0,1,.6.8c2.6,6,4.2,13.1,6.9,19.1.1.4.2.9-.2,1.2l-4.6.1Z" fill="#fdfeff"/><path d="M113.7,6.2c.1,0,.3.3.3.5l-7.8,14c-.4,1.4.4,5.5-.2,6.4-.3.5-4.3.5-4.7.1-.9-.7-.2-5.3-.6-6.7L93.1,7.2c-.2-.7-.1-.9.6-1a28.58,28.58,0,0,1,5.1.1c.9.7,4.3,8.5,4.9,8.3s3.7-7.7,4.8-8.4Z" fill="#fdfeff"/><path d="M25.7,19.7,28.2,14c.3,2.5,1.9,5.2,2.3,7.6.1.7-1.3,3.9-1.7,4.7a4.73,4.73,0,0,1-.7,1.2,22,22,0,0,1-4.5.1.91.91,0,0,1-.8-.4c-1.4-3-3.3-5.9-4.7-8.9A102.77,102.77,0,0,1,13.9,7.9c-.1-.4-.6-1.2,0-1.5a38.81,38.81,0,0,1,4.9-.1c.8.1,1,.6,1.3,1.2,1.9,3.6,3.1,8.1,4.9,11.8,0,.3.3.4.7.4" fill="#fdfeff"/><path d="M31.8,19.6c0-.1-.3-.5-.4-.8C31,17.4,29,11.9,29.2,11c.2-.6,1.3-3.1,1.6-3.8a5.55,5.55,0,0,0,.6-.8c.4-.3,4.2-.3,5-.2s.8.5.9,1.2c.5,6-.4,12.7,0,18.8,0,.5-.1,1.1-.7,1.2a26.7,26.7,0,0,1-4,0c-.2,0-.7-.3-.7-.5V19.6Z" fill="#fdfeff"/><path d="M13.9,27.5l-.5-1V12.6a7.94,7.94,0,0,1,1.3,2.6,90.7,90.7,0,0,1,3.9,10.6c.1.6.3,1.3-.2,1.7Z" fill="#fdfeff"/><path d="M133.1,20.6H136a1.11,1.11,0,0,0,1.1-1.1V7.4A1.11,1.11,0,0,0,136,6.3h-2.9A1.11,1.11,0,0,0,132,7.4V19.5a1.11,1.11,0,0,0,1.1,1.1" fill="#fdfeff"/><path d="M75.7,27.4h2.9a1.11,1.11,0,0,0,1.1-1.1V16.7a1.11,1.11,0,0,0-1.1-1.1H75.7a1.11,1.11,0,0,0-1.1,1.1v9.6a1.11,1.11,0,0,0,1.1,1.1" fill="#fdfeff"/><path d="M64.3,27.4h2.9a1.11,1.11,0,0,0,1.1-1.1V16.7a1.11,1.11,0,0,0-1.1-1.1H64.3a1.11,1.11,0,0,0-1.1,1.1v9.6a1.11,1.11,0,0,0,1.1,1.1" fill="#fdfeff"/><path d="M132,23.8v2.6a1.11,1.11,0,0,0,1.1,1.1h14.3a1.11,1.11,0,0,0,1.1-1.1V23.8a1.11,1.11,0,0,0-1.1-1.1H133.1a1.11,1.11,0,0,0-1.1,1.1" fill="#fff"/><path d="M122.4,24.4a2.2,2.2,0,1,1-2.2-2.2,2.16,2.16,0,0,1,2.2,2.2" fill="#fff"/><path d="M51.4,24.2A2.2,2.2,0,1,1,49.2,22a2.22,2.22,0,0,1,2.2,2.2" fill="#fff"/><path d="M55,30.1c-.1-.2.1-.4.3-.4h49.8s.5.1.2.8l-3.4,7.1s-.5.5-1-.2l-4.4-3.9h-40c-.1,0-.2-.1-.3-.2Z" fill="#f87b39"/></svg>